<svg xmlns="http://www.w3.org/2000/svg" viewBox="0 0 48.3 37.5" fill="#00dc70"><path d="M37.4 34.2h-.7V21.5a1.54 1.54 0 0 0-1.5-1.5h0-23.5l-2.5 2.5c-.2.2-.2.5 0 .7.1.1.2.1.3.1h2.1v2.4c-3.7 0-4.1-4.7-4.1-4.7-.8-4.1-1.9-5-4.3-5-3.5 0-3.8 4-2.8 4s0-2 1.8-2c3.5 0-1.7 9.6 6 14.2 1 .7 2.1 1 3.3 1.1v3.2a.94.94 0 0 0 1 1h9.7a.94.94 0 0 0 1-1v-1.3a.94.94 0 0 0-1-1h-.7v-1.6h5v4a.94.94 0 0 0 1 1h9.7a.94.94 0 0 0 1-1v-1.4c.2-.6-.3-1-.8-1zm8.4-30.9c-1.4 0-2.5 1.1-2.5 2.5h-20C23.2 2.6 20.4.1 17.2.2c-3 .1-5.5 2.6-5.6 5.6h0L9.2 8.3c-.2.2-.2.5 0 .7.1.1.2.1.3.1h2.1v1.2l-2.5 2.5c-.2.2-.2.5 0 .7.1.1.2.1.3.1h2.1V15L9 17.5c0 .2 0 .5.2.7.1.1.2.1.3.1h28.1a.68.68 0 0 0 .7-.7v-1.8H25.8c-1.4 0-2.5-1.1-2.5-2.5h22.9c1.1 0 2.1-.9 2.1-2.1h0V5.8c0-1.3-1.1-2.5-2.5-2.5z"/></svg>